<?xml version="1.0" standalone="no"?>
<!DOCTYPE svg PUBLIC "-//W3C//DTD SVG 20010904//EN"
 "http://www.w3.org/TR/2001/REC-SVG-20010904/DTD/svg10.dtd">
<svg version="1.0" xmlns="http://www.w3.org/2000/svg"
 width="256.000000pt" height="256.000000pt" viewBox="0 0 256.000000 256.000000"
 preserveAspectRatio="xMidYMid meet">
<metadata>
Created by potrace 1.14, written by Peter Selinger 2001-2017
</metadata>
<g transform="translate(0.000000,256.000000) scale(0.100000,-0.100000)"
fill="#000000" stroke="none">
<path d="M593 2542 c-67 -24 -154 -90 -194 -148 -34 -50 -69 -132 -69 -163 0
-11 -15 -38 -34 -60 -42 -50 -59 -99 -52 -149 3 -20 5 -40 6 -44 0 -14 64 -80
85 -88 l22 -8 0 -855 c0 -787 1 -859 17 -901 21 -54 71 -101 123 -115 54 -15
1103 -15 1153 0 45 14 91 53 116 99 16 30 19 61 22 202 l4 168 161 0 c179 0
223 11 272 67 50 58 52 76 51 528 -1 453 0 444 -56 502 -18 20 -100 69 -107
64 -2 0 -75 -1 -163 -1 l-160 0 0 124 0 124 27 6 c14 4 45 20 69 36 200 138
180 444 -36 555 -153 78 -341 25 -426 -121 -24 -40 -27 -42 -42 -27 -54 54
-160 67 -234 30 l-45 -23 -28 44 c-33 51 -107 112 -173 143 -67 31 -235 37
-309 11z m1535 -996 c15 -8 36 -24 47 -36 19 -21 20 -37 22 -424 1 -264 -3
-414 -10 -439 -6 -23 -23 -49 -42 -63 -31 -23 -38 -24 -193 -24 l-162 0 0 500
0 500 155 0 c114 0 163 -4 183 -14z"/>
</g>
</svg>
